Coordinates
version=1
nRows=7
nColumns=40
inDegrees=yes

Units are S.I. units (second, meters, Newtons, ...)
Angles are in degrees.

endheader
time	pelvis_tilt	pelvis_list	pelvis_rotation	pelvis_tx	pelvis_ty	pelvis_tz	hip_flexion_r	hip_adduction_r	hip_rotation_r	knee_angle_r	knee_angle_r_beta	ankle_angle_r	subtalar_angle_r	mtp_angle_r	hip_flexion_l	hip_adduction_l	hip_rotation_l	knee_angle_l	knee_angle_l_beta	ankle_angle_l	subtalar_angle_l	mtp_angle_l	lumbar_extension	lumbar_bending	lumbar_rotation	arm_flex_r	arm_add_r	arm_rot_r	elbow_flex_r	pro_sup_r	wrist_flex_r	wrist_dev_r	arm_flex_l	arm_add_l	arm_rot_l	elbow_flex_l	pro_sup_l	wrist_flex_l	wrist_dev_l
      3.69000000	      3.43471710	     -3.20105549	      2.02344304	      0.60062523	      0.89317497	     -1.00740778	     -3.93422230	      4.36943584	    -16.84739544	    -19.44913163	     -0.33945138	     13.75228033	      0.02816201	     -4.66216306	     20.67144079	      4.19393234	      7.47356981	    -25.02684651	     -0.43680087	      1.60580329	     -1.24020392	    -11.33112092	    -11.20022876	      3.88161770	      3.82714485	     15.34696532	    -11.61082315	     19.97744778	     21.91583382	     89.95437384	      0.00000000	      0.00000000	      2.91794563	      8.46906614	     -5.67042712	     20.32106699	     89.95437384	      0.00000000	      0.00000000
      3.70000000	      3.38456961	     -3.16078837	      1.77477834	      0.60673522	      0.89234813	     -1.00748455	     -4.26389946	      4.26920369	    -16.60086769	    -19.58795128	     -0.34187424	     13.99499576	      0.20563486	     -4.83170656	     20.87803605	      4.19144643	      8.19195170	    -23.39595021	     -0.40833636	      0.49869912	     -1.71280338	    -11.15429655	    -11.26946062	      3.75727594	      4.10037828	     15.53619410	    -11.53536472	     20.17280684	     22.34469952	     89.95437384	      0.00000000	      0.00000000	      2.86683346	      8.33865653	     -5.25714185	     20.33418009	     89.95437384	      0.00000000	      0.00000000
      3.71000000	      3.16977743	     -3.32405163	      1.65416630	      0.61287522	      0.89115021	     -1.00772133	     -4.45135740	      4.40581337	    -16.48935346	    -19.62928107	     -0.34259558	     14.23107123	      0.28520248	     -4.89917382	     21.32522525	      4.31229099	      8.46665920	    -22.04984845	     -0.38484245	     -0.48292495	     -1.77513680	    -10.89744255	    -11.13303924	      3.87475045	      4.27018459	     15.67268072	    -11.45847440	     20.27234887	     22.73001120	     89.95437384	      0.00000000	      0.00000000	      2.72306230	      8.24066047	     -5.10216354	     20.45994091	     89.95437384	      0.00000000	      0.00000000
      3.72000000	      3.09736113	     -3.35464419	      1.44163133	      0.61921184	      0.89023353	     -1.00795347	     -4.79727639	      4.39933672	    -16.18358213	    -19.72780078	     -0.34431508	     14.41971991	      0.41281347	     -5.00106932	     21.48176200	      4.34332961	      8.97061671	    -20.80409615	     -0.36309998	     -1.32360615	     -1.86779933	    -10.64936600	    -11.14952750	      3.84133708	      4.50894538	     15.80466176	    -11.36449249	     20.44735863	     23.03973241	     89.95437384	      0.00000000	      0.00000000	      2.67672526	      8.09739914	     -4.86968050	     20.37873694	     89.95437384	      0.00000000	      0.00000000
      3.73000000	      2.95314099	     -3.43453672	      1.34236418	      0.62568289	      0.88914129	     -1.00843546	     -5.08076505	      4.41124462	    -16.18609919	    -19.79314521	     -0.34545555	     14.57325494	      0.39999120	     -5.03244836	     21.83788663	      4.42333843	      9.40989335	    -19.97775775	     -0.34867765	     -1.43256063	     -1.92043084	    -10.51193634	    -11.05923068	      3.88213863	      4.56747282	     15.94179577	    -11.22008612	     20.55136891	     23.24681715	     89.95437384	      0.00000000	      0.00000000	      2.59344634	      7.98739240	     -4.82569555	     20.28567231	     89.95437384	      0.00000000	      0.00000000
      3.74000000	      2.93535121	     -3.37984140	      0.98052475	      0.63221736	      0.88839693	     -1.00875839	     -5.45686660	      4.26383879	    -15.73846405	    -19.97098901	     -0.34855951	     14.81702373	      0.52183404	     -5.14670269	     21.71191894	      4.37248373	      9.81062093	    -18.76383863	     -0.32749076	     -1.90409680	     -2.18170924	    -10.31432418	    -11.14779946	      3.76429548	      4.91052901	     16.03381913	    -11.13848477	     20.78701316	     23.54401928	     89.95437384	      0.00000000	      0.00000000	      2.55989288	      7.80782505	     -4.64013688	     20.17412198	     89.95437384	      0.00000000	      0.00000000
      3.75000000	      3.20199155	     -3.11737609	      0.55755744	      0.63919478	      0.88814839	     -1.00914269	     -6.23976878	      3.83185484	    -15.48471025	    -20.02117815	     -0.34943548	     14.96603988	      0.72271062	     -5.43447198	     21.17045812	      4.23036637	     10.90060476	    -17.71503018	     -0.30918560	     -2.36122123	     -2.63487871	    -10.07103421	    -11.53230468	      3.38975269	      5.20114318	     16.15577173	    -11.02310283	     21.21033766	     23.78133627	     89.95437384	      0.00000000	      0.00000000	      2.47482867	      7.67586667	     -4.34509470	     20.10099271	     89.95437384	      0.00000000	      0.00000000
